<svg width="25" height="24" viewBox="0 0 25 24" fill="none" xmlns="http://www.w3.org/2000/svg">
<path d="M1.34961 6.22358L12.0294 10.7375L12.7523 9.19065L2.07251 4.67676L1.34961 6.22358ZM13.2808 22.3773V9.96407H11.5009V22.3773H13.2808ZM12.7523 10.7375L23.4321 6.22358L22.7092 4.67676L12.0294 9.19065L12.7523 10.7375Z" fill="#431DDB"/>
<path d="M1.71094 17.4233V5.89005C1.71094 5.62248 1.87664 5.38001 2.13376 5.27133L12.1015 1.05836C12.2857 0.980548 12.4957 0.980548 12.6799 1.05836L22.6477 5.27133C22.9049 5.38001 23.0705 5.62248 23.0705 5.89005V17.4233C23.0705 17.6908 22.9049 17.9333 22.6477 18.042L12.6799 22.2549C12.4957 22.3327 12.2857 22.3327 12.1015 22.2549L2.13376 18.042C1.87664 17.9333 1.71094 17.6908 1.71094 17.4233Z" stroke="#431DDB" stroke-width="2" stroke-linecap="round" stroke-linejoin="round"/>
<path d="M7.05078 3.19238L17.3078 7.52757C17.5649 7.63625 17.7306 7.87872 17.7306 8.14629V12.2202" stroke="#431DDB" stroke-width="2" stroke-linecap="round" stroke-linejoin="round"/>
</svg>
