<svg width="22" height="20" viewBox="0 0 22 20" fill="none" xmlns="http://www.w3.org/2000/svg">
<path d="M15.0039 0H6.11061C4.51015 0 2.97524 0.606539 1.84357 1.68627C0.711891 2.766 0.0761719 4.2305 0.0761719 5.75745V14.2426C0.0761719 15.7696 0.711891 17.234 1.84357 18.3137C2.97524 19.3935 4.5102 20 6.11061 20H15.0039C16.6044 20 18.1393 19.3935 19.271 18.3137C20.4026 17.234 21.0384 15.7695 21.0384 14.2426V5.75745C21.0384 4.23045 20.4026 2.766 19.271 1.68627C18.1393 0.606539 16.6043 0 15.0039 0ZM6.11115 1.81816H15.0039C16.098 1.82141 17.1461 2.23739 17.9198 2.9754C18.6933 3.71362 19.1294 4.71361 19.1327 5.75745V6.0604L2.29945 6.06061C2.19055 6.06203 2.08294 6.08252 1.98192 6.12108V5.75745C1.98532 4.71361 2.42132 3.71362 3.19482 2.9754C3.96857 2.23738 5.01666 1.82138 6.11072 1.81816L6.11115 1.81816ZM12.7809 18.1816H8.33432V13.9392H12.7809V18.1816ZM12.7809 12.1209H8.33432V7.87846H12.7809V12.1209ZM1.98192 7.818C2.08294 7.85655 2.19055 7.87705 2.29945 7.87867H6.42847V12.1211L2.29945 12.1209C2.19055 12.1225 2.08294 12.143 1.98192 12.1816V7.818ZM1.98192 14.2423V13.8787C2.08294 13.9173 2.19055 13.9378 2.29945 13.9392H6.42847V18.1816H6.11072C5.01667 18.1784 3.96857 17.7624 3.19483 17.0244C2.42131 16.2862 1.9853 15.2862 1.98192 14.2424L1.98192 14.2423ZM15.0039 18.1816H14.6864V7.87888H19.133L19.1327 14.2424C19.1293 15.2863 18.6933 16.2863 17.9198 17.0245C17.1461 17.7625 16.098 18.1785 15.0039 18.1817L15.0039 18.1816Z" fill="#1652F9"/>
</svg>
