<svg width="87" height="108" viewBox="0 0 87 108" fill="none" xmlns="http://www.w3.org/2000/svg">
<path d="M85.8289 16.6945C85.3765 16.0868 84.7316 15.6065 83.9725 15.3118L45.2973 0.323086C44.7481 0.110071 44.1537 0 43.5526 0C42.9515 0 42.3571 0.110071 41.8079 0.323086L3.13265 15.3118C2.37281 15.6062 1.72722 16.0864 1.27415 16.6943C0.821072 17.3022 0.579973 18.0117 0.580078 18.7367V71.1972H9.17458V21.1724L43.5526 7.84742L77.9306 21.1724V71.1972H86.5251V18.7367C86.5245 18.0116 86.2827 17.3022 85.8289 16.6945ZM52.1471 26.2311H69.3361V41.2198H52.1471V26.2311ZM43.5526 33.7254H17.7691V71.1972H43.5526V33.7254ZM69.3361 48.7142H52.1471V71.1972H69.3361V48.7142Z" fill="#EEF9F7"/>
<path d="M5.35691 90.0688V101.301H2.62091V90.0688H5.35691ZM12.7797 92.2768C13.825 92.2768 14.657 92.6181 15.2757 93.3008C15.905 93.9728 16.2197 94.9008 16.2197 96.0848V101.301H13.4997V96.4528C13.4997 95.8554 13.345 95.3914 13.0357 95.0608C12.7263 94.7301 12.3103 94.5648 11.7877 94.5648C11.265 94.5648 10.849 94.7301 10.5397 95.0608C10.2303 95.3914 10.0757 95.8554 10.0757 96.4528V101.301H7.33966V92.3728H10.0757V93.5568C10.353 93.1621 10.7263 92.8528 11.1957 92.6288C11.665 92.3941 12.193 92.2768 12.7797 92.2768ZM22.1369 98.7408L24.0729 92.3728H26.9849L23.8169 101.301H20.4409L17.2729 92.3728H20.2009L22.1369 98.7408ZM36.5525 96.6928C36.5525 96.9488 36.5365 97.2154 36.5045 97.4928H30.3125C30.3552 98.0474 30.5312 98.4741 30.8405 98.7728C31.1605 99.0608 31.5499 99.2048 32.0085 99.2048C32.6912 99.2048 33.1659 98.9168 33.4325 98.3408H36.3445C36.1952 98.9274 35.9232 99.4554 35.5285 99.9248C35.1445 100.394 34.6592 100.762 34.0725 101.029C33.4859 101.295 32.8299 101.429 32.1045 101.429C31.2299 101.429 30.4512 101.242 29.7685 100.869C29.0859 100.495 28.5525 99.9621 28.1685 99.2688C27.7845 98.5754 27.5925 97.7648 27.5925 96.8368C27.5925 95.9088 27.7792 95.0981 28.1525 94.4048C28.5365 93.7114 29.0699 93.1781 29.7525 92.8048C30.4352 92.4314 31.2192 92.2448 32.1045 92.2448C32.9685 92.2448 33.7365 92.4261 34.4085 92.7888C35.0805 93.1514 35.6032 93.6688 35.9765 94.3408C36.3605 95.0128 36.5525 95.7968 36.5525 96.6928ZM33.7525 95.9728C33.7525 95.5034 33.5925 95.1301 33.2725 94.8528C32.9525 94.5754 32.5525 94.4368 32.0725 94.4368C31.6139 94.4368 31.2245 94.5701 30.9045 94.8368C30.5952 95.1034 30.4032 95.4821 30.3285 95.9728H33.7525ZM43.4359 92.2768C44.4812 92.2768 45.3132 92.6181 45.9319 93.3008C46.5612 93.9728 46.8759 94.9008 46.8759 96.0848V101.301H44.1559V96.4528C44.1559 95.8554 44.0012 95.3914 43.6919 95.0608C43.3826 94.7301 42.9666 94.5648 42.4439 94.5648C41.9212 94.5648 41.5052 94.7301 41.1959 95.0608C40.8866 95.3914 40.7319 95.8554 40.7319 96.4528V101.301H37.9959V92.3728H40.7319V93.5568C41.0092 93.1621 41.3826 92.8528 41.8519 92.6288C42.3212 92.3941 42.8492 92.2768 43.4359 92.2768ZM53.7532 98.9808V101.301H52.3612C51.3692 101.301 50.5958 101.061 50.0412 100.581C49.4865 100.09 49.2092 99.2954 49.2092 98.1968V94.6448H48.1212V92.3728H49.2092V90.1968H51.9452V92.3728H53.7372V94.6448H51.9452V98.2288C51.9452 98.4954 52.0092 98.6874 52.1372 98.8048C52.2652 98.9221 52.4785 98.9808 52.7772 98.9808H53.7532ZM58.0132 93.8608C58.3332 93.3701 58.7332 92.9861 59.2132 92.7088C59.6932 92.4208 60.2265 92.2768 60.8132 92.2768V95.1728H60.0612C59.3785 95.1728 58.8665 95.3221 58.5252 95.6208C58.1838 95.9088 58.0132 96.4208 58.0132 97.1568V101.301H55.2772V92.3728H58.0132V93.8608ZM66.1849 101.429C65.3102 101.429 64.5209 101.242 63.8169 100.869C63.1236 100.495 62.5742 99.9621 62.1689 99.2688C61.7742 98.5754 61.5769 97.7648 61.5769 96.8368C61.5769 95.9194 61.7796 95.1141 62.1849 94.4208C62.5902 93.7168 63.1449 93.1781 63.8489 92.8048C64.5529 92.4314 65.3422 92.2448 66.2169 92.2448C67.0916 92.2448 67.8809 92.4314 68.5849 92.8048C69.2889 93.1781 69.8436 93.7168 70.2489 94.4208C70.6542 95.1141 70.8569 95.9194 70.8569 96.8368C70.8569 97.7541 70.6489 98.5648 70.2329 99.2688C69.8276 99.9621 69.2676 100.495 68.5529 100.869C67.8489 101.242 67.0596 101.429 66.1849 101.429ZM66.1849 99.0608C66.7076 99.0608 67.1502 98.8688 67.5129 98.4848C67.8862 98.1008 68.0729 97.5514 68.0729 96.8368C68.0729 96.1221 67.8916 95.5728 67.5289 95.1888C67.1769 94.8048 66.7396 94.6128 66.2169 94.6128C65.6836 94.6128 65.2409 94.8048 64.8889 95.1888C64.5369 95.5621 64.3609 96.1114 64.3609 96.8368C64.3609 97.5514 64.5316 98.1008 64.8729 98.4848C65.2249 98.8688 65.6622 99.0608 66.1849 99.0608ZM77.7484 92.2768C78.7937 92.2768 79.6257 92.6181 80.2444 93.3008C80.8737 93.9728 81.1884 94.9008 81.1884 96.0848V101.301H78.4684V96.4528C78.4684 95.8554 78.3137 95.3914 78.0044 95.0608C77.6951 94.7301 77.2791 94.5648 76.7564 94.5648C76.2337 94.5648 75.8177 94.7301 75.5084 95.0608C75.1991 95.3914 75.0444 95.8554 75.0444 96.4528V101.301H72.3084V92.3728H75.0444V93.5568C75.3217 93.1621 75.6951 92.8528 76.1644 92.6288C76.6337 92.3941 77.1617 92.2768 77.7484 92.2768Z" fill="#EEF9F7"/>
</svg>
