<svg width="20" height="20" viewBox="0 0 20 20" fill="none" xmlns="http://www.w3.org/2000/svg">
<path d="M0 3.00004C0 1.34316 1.34316 0 3.00004 0H10C11.6569 0 13 1.34316 13 3.00004V5.50002C13 6.05233 12.5524 6.49998 12.0001 6.49998C11.4478 6.49998 11 6.05233 11 5.50002V3.00004C11 2.44773 10.5523 1.99991 10 1.99991H3.00004C2.44773 1.99991 1.99991 2.44773 1.99991 3.00004V17C1.99991 17.5523 2.44773 18.0001 3.00004 18.0001H10C10.5523 18.0001 11 17.5523 11 17V14.5C11 13.9477 11.4478 13.5 12.0001 13.5C12.5524 13.5 13 13.9477 13 14.5V17C13 18.657 11.6569 20 10 20H3.00004C1.34316 20 0 18.657 0 17V3.00004Z" fill="#1652F9"/>
<path d="M13.998 13.0001C13.998 13.379 14.2121 13.7252 14.5507 13.8946C14.8896 14.0639 15.295 14.0274 15.5981 13.8002L19.5981 10.8002C19.8499 10.6112 19.998 10.3148 19.998 10.0001C19.998 9.68535 19.8499 9.38903 19.5981 9.20003L15.5981 6.19999C15.2951 5.97281 14.8896 5.93615 14.5507 6.10557C14.2121 6.27499 13.998 6.62119 13.998 7.00005V9.00014H8.99818C8.44587 9.00014 7.99805 9.44779 7.99805 10.0001C7.99805 10.5524 8.44587 11.0001 8.99818 11.0001H13.998V13.0001Z" fill="#1652F9"/>
</svg>
