<svg width="25" height="24" viewBox="0 0 25 24" fill="none" xmlns="http://www.w3.org/2000/svg">
<path d="M2.46875 5.00004C2.46875 3.34316 3.81191 2 5.46879 2H12.4687C14.1256 2 15.4688 3.34316 15.4688 5.00004V7.50002C15.4688 8.05233 15.0211 8.49998 14.4688 8.49998C13.9165 8.49998 13.4687 8.05233 13.4687 7.50002V5.00004C13.4687 4.44773 13.0211 3.99991 12.4687 3.99991H5.46879C4.91648 3.99991 4.46866 4.44773 4.46866 5.00004V19C4.46866 19.5523 4.91648 20.0001 5.46879 20.0001H12.4687C13.0211 20.0001 13.4687 19.5523 13.4687 19V16.5C13.4687 15.9477 13.9165 15.5 14.4688 15.5C15.0211 15.5 15.4688 15.9477 15.4688 16.5V19C15.4688 20.657 14.1256 22 12.4687 22H5.46879C3.81191 22 2.46875 20.657 2.46875 19V5.00004Z" fill="#F4FAFB"/>
<path d="M16.4667 15.0001C16.4667 15.379 16.6808 15.7252 17.0195 15.8946C17.3583 16.0639 17.7638 16.0274 18.0668 15.8002L22.0668 12.8002C22.3186 12.6112 22.4668 12.3148 22.4668 12.0001C22.4668 11.6854 22.3186 11.389 22.0668 11.2L18.0668 8.19999C17.7638 7.97281 17.3584 7.93615 17.0195 8.10557C16.6808 8.27499 16.4667 8.62119 16.4667 9.00005V11.0001H11.4669C10.9146 11.0001 10.4668 11.4478 10.4668 12.0001C10.4668 12.5524 10.9146 13.0001 11.4669 13.0001H16.4667V15.0001Z" fill="#F4FAFB"/>
</svg>
