<svg width="23" height="21" viewBox="0 0 23 21" fill="none" xmlns="http://www.w3.org/2000/svg">
<path d="M0.224609 0H12.1867V20.1326H0.224609V0ZM10.2728 1.82612H2.13858V18.3065H10.2728V1.82612ZM10.2728 0H22.2349V20.1326H10.2728V0ZM20.321 1.82612H12.1867V18.3065H20.321V1.82612ZM18.541 5.3139H13.9667V3.48782H18.541V5.3139ZM8.49284 5.3139H3.91851V3.48782H8.49284V5.3139ZM18.541 8.80174H13.9667V6.97562H18.541V8.80174ZM8.49284 8.80174H3.91851V6.97562H8.49284V8.80174ZM9.40197 12.2896H7.57409V10.4635H9.40191L9.40197 12.2896ZM19.4502 12.2896H17.6223V10.4635H19.4502V12.2896ZM3.96636 20.9635H2.05239V19.2196H3.96636V20.9635ZM10.3589 20.9635H8.44497V19.2196H10.3589V20.9635ZM14.0146 20.9635H12.1006V19.2196H14.0146V20.9635ZM20.4071 20.9635H18.4931V19.2196H20.4071V20.9635Z" fill="#5532DE"/>
</svg>
