<svg width="32" height="32" viewBox="0 0 32 32" fill="none" xmlns="http://www.w3.org/2000/svg">
<path d="M16.1607 18.04C16.134 18.04 16.094 18.04 16.0673 18.04C16.0273 18.04 15.974 18.04 15.934 18.04C12.9073 17.9467 10.6406 15.5867 10.6406 12.68C10.6406 9.71997 13.054 7.30664 16.014 7.30664C18.974 7.30664 21.3873 9.71997 21.3873 12.68C21.374 15.6 19.094 17.9467 16.2007 18.04C16.174 18.04 16.174 18.04 16.1607 18.04ZM16.0007 9.29331C14.134 9.29331 12.6273 10.8133 12.6273 12.6666C12.6273 14.4933 14.054 15.9733 15.8673 16.04C15.9073 16.0267 16.0407 16.0267 16.174 16.04C17.9607 15.9467 19.3607 14.48 19.374 12.6666C19.374 10.8133 17.8673 9.29331 16.0007 9.29331Z" fill="#292D32"/>
<path d="M16.0004 30.3333C12.4138 30.3333 8.9871 28.9999 6.33377 26.5733C6.09377 26.3599 5.9871 26.0399 6.01377 25.7333C6.1871 24.1466 7.17377 22.6666 8.81377 21.5733C12.7871 18.9333 19.2271 18.9333 23.1871 21.5733C24.8271 22.6799 25.8138 24.1466 25.9871 25.7333C26.0271 26.0533 25.9071 26.3599 25.6671 26.5733C23.0138 28.9999 19.5871 30.3333 16.0004 30.3333ZM8.1071 25.4666C10.3204 27.3199 13.1071 28.3333 16.0004 28.3333C18.8938 28.3333 21.6804 27.3199 23.8938 25.4666C23.6538 24.6533 23.0138 23.8666 22.0671 23.2266C18.7871 21.0399 13.2271 21.0399 9.92043 23.2266C8.97377 23.8666 8.3471 24.6533 8.1071 25.4666Z" fill="#292D32"/>
<path d="M15.9993 30.3332C8.09268 30.3332 1.66602 23.9065 1.66602 15.9998C1.66602 8.09317 8.09268 1.6665 15.9993 1.6665C23.906 1.6665 30.3327 8.09317 30.3327 15.9998C30.3327 23.9065 23.906 30.3332 15.9993 30.3332ZM15.9993 3.6665C9.19935 3.6665 3.66602 9.19984 3.66602 15.9998C3.66602 22.7998 9.19935 28.3332 15.9993 28.3332C22.7993 28.3332 28.3327 22.7998 28.3327 15.9998C28.3327 9.19984 22.7993 3.6665 15.9993 3.6665Z" fill="#292D32"/>
</svg>
