<svg width="23" height="20" viewBox="0 0 23 20" fill="none" xmlns="http://www.w3.org/2000/svg">
<path d="M18.877 7.75H6.29965L7.7146 5.95C7.83969 5.79087 7.8934 5.59085 7.86392 5.39393C7.83443 5.19702 7.72417 5.01935 7.55739 4.9C7.4748 4.8409 7.38083 4.79791 7.28083 4.77346C7.18083 4.74902 7.07676 4.74361 6.97457 4.75754C6.76818 4.78567 6.58196 4.89087 6.45687 5.05L4.09862 8.05C4.01103 8.16143 3.95769 8.29392 3.94458 8.43265C3.93147 8.57137 3.95911 8.71083 4.0244 8.83541C4.08968 8.95999 4.19004 9.06476 4.31422 9.13799C4.4384 9.21121 4.5815 9.25 4.72749 9.25H18.877C19.0855 9.25 19.2854 9.17098 19.4328 9.03033C19.5802 8.88968 19.6631 8.69891 19.6631 8.5C19.6631 8.30109 19.5802 8.11032 19.4328 7.96967C19.2854 7.82902 19.0855 7.75 18.877 7.75Z" fill="url(#paint0_linear_7428_29970)"/>
<path d="M16.0471 15.1C16.1831 15.1974 16.3486 15.25 16.5187 15.25C16.6408 15.25 16.7611 15.2229 16.8703 15.1708C16.9794 15.1187 17.0744 15.0431 17.1476 14.95L19.5058 11.95C19.5934 11.8386 19.6468 11.7061 19.6599 11.5674C19.673 11.4286 19.6454 11.2892 19.5801 11.1646C19.5148 11.04 19.4144 10.9352 19.2902 10.862C19.1661 10.7888 19.023 10.75 18.877 10.75H4.72749C4.51901 10.75 4.31906 10.829 4.17164 10.9697C4.02423 11.1103 3.94141 11.3011 3.94141 11.5C3.94141 11.6989 4.02423 11.8897 4.17164 12.0303C4.31906 12.171 4.51901 12.25 4.72749 12.25H17.3048L15.8899 14.05C15.8279 14.1288 15.7829 14.2185 15.7572 14.3139C15.7316 14.4093 15.7259 14.5086 15.7405 14.6061C15.7551 14.7036 15.7897 14.7974 15.8423 14.8821C15.8949 14.9669 15.9645 15.0409 16.0471 15.1Z" fill="url(#paint1_linear_7428_29970)"/>
<path d="M19.8122 0.25H18.0907C17.8822 0.25 17.6823 0.329018 17.5348 0.46967C17.3874 0.610322 17.3046 0.801088 17.3046 1C17.3046 1.19891 17.3874 1.38968 17.5348 1.53033C17.6823 1.67098 17.8822 1.75 18.0907 1.75H19.8122C20.1896 1.75 20.5515 1.89302 20.8183 2.1476C21.0851 2.40218 21.235 2.74747 21.235 3.1075V16.8925C21.235 17.2525 21.0851 17.5978 20.8183 17.8524C20.5515 18.107 20.1896 18.25 19.8122 18.25H3.79185C3.4145 18.25 3.0526 18.107 2.78577 17.8524C2.51894 17.5978 2.36904 17.2525 2.36904 16.8925V3.1075C2.36904 2.74747 2.51894 2.40218 2.78577 2.1476C3.0526 1.89302 3.4145 1.75 3.79185 1.75H14.9464C15.1548 1.75 15.3548 1.67098 15.5022 1.53033C15.6496 1.38968 15.7324 1.19891 15.7324 1C15.7324 0.801088 15.6496 0.610322 15.5022 0.46967C15.3548 0.329018 15.1548 0.25 14.9464 0.25H3.79185C2.99817 0.25198 2.23759 0.553673 1.67637 1.08913C1.11516 1.62459 0.79895 2.35025 0.796875 3.1075V16.8925C0.79895 17.6497 1.11516 18.3754 1.67637 18.9109C2.23759 19.4463 2.99817 19.748 3.79185 19.75H19.8122C20.6059 19.748 21.3665 19.4463 21.9277 18.9109C22.4889 18.3754 22.8051 17.6497 22.8072 16.8925V3.1075C22.8051 2.35025 22.4889 1.62459 21.9277 1.08913C21.3665 0.553673 20.6059 0.25198 19.8122 0.25Z" fill="url(#paint2_linear_7428_29970)"/>
<defs>
<linearGradient id="paint0_linear_7428_29970" x1="18.5041" y1="4.75" x2="17.9702" y2="10.914" gradientUnits="userSpaceOnUse">
<stop offset="0.562831" stop-color="#431DDB" stop-opacity="0.9"/>
<stop offset="1" stop-color="#4DC894"/>
</linearGradient>
<linearGradient id="paint1_linear_7428_29970" x1="18.5041" y1="10.75" x2="17.9702" y2="16.914" gradientUnits="userSpaceOnUse">
<stop offset="0.562831" stop-color="#431DDB" stop-opacity="0.9"/>
<stop offset="1" stop-color="#4DC894"/>
</linearGradient>
<linearGradient id="paint2_linear_7428_29970" x1="21.1847" y1="0.250003" x2="14.4537" y2="25.3564" gradientUnits="userSpaceOnUse">
<stop offset="0.562831" stop-color="#431DDB" stop-opacity="0.9"/>
<stop offset="1" stop-color="#4DC894"/>
</linearGradient>
</defs>
</svg>
