<svg width="30" height="20" viewBox="0 0 30 20" fill="none" xmlns="http://www.w3.org/2000/svg">
<path d="M5.24973 8.93583C6.81885 8.93583 8.0946 7.71864 8.0946 6.22154C8.0946 4.72444 6.81885 3.50725 5.24973 3.50725C3.6806 3.50725 2.40486 4.72444 2.40486 6.22154C2.40486 7.71864 3.6806 8.93583 5.24973 8.93583ZM25.1638 8.93583C26.7329 8.93583 28.0087 7.71864 28.0087 6.22154C28.0087 4.72444 26.7329 3.50725 25.1638 3.50725C23.5947 3.50725 22.3189 4.72444 22.3189 6.22154C22.3189 7.71864 23.5947 8.93583 25.1638 8.93583ZM26.5862 10.293H23.7414C22.959 10.293 22.2523 10.5941 21.7366 11.0818C23.528 12.0191 24.7993 13.7113 25.0749 15.7215H28.0087C28.7955 15.7215 29.4311 15.1151 29.4311 14.3644V13.0073C29.4311 11.5102 28.1554 10.293 26.5862 10.293ZM15.2068 10.293C17.9583 10.293 20.1853 8.16819 20.1853 5.54297C20.1853 2.91775 17.9583 0.792969 15.2068 0.792969C12.4552 0.792969 10.2282 2.91775 10.2282 5.54297C10.2282 8.16819 12.4552 10.293 15.2068 10.293ZM18.6206 11.6501H18.2517C17.3271 12.0742 16.3003 12.3287 15.2068 12.3287C14.1133 12.3287 13.0909 12.0742 12.1619 11.6501H11.7929C8.96584 11.6501 6.67216 13.8385 6.67216 16.5358V17.7573C6.67216 18.8811 7.62786 19.793 8.80581 19.793H21.6077C22.7857 19.793 23.7414 18.8811 23.7414 17.7573V16.5358C23.7414 13.8385 21.4477 11.6501 18.6206 11.6501ZM8.67691 11.0818C8.16127 10.5941 7.4545 10.293 6.67216 10.293H3.82729C2.25817 10.293 0.982422 11.5102 0.982422 13.0073V14.3644C0.982422 15.1151 1.61807 15.7215 2.40486 15.7215H5.33418C5.61423 13.7113 6.88553 12.0191 8.67691 11.0818Z" fill="#431DDB"/>
</svg>
