<svg width="95" height="95" viewBox="0 0 95 95" fill="none" xmlns="http://www.w3.org/2000/svg">
<path d="M47.5155 0C27.6847 0 21.8849 0.0204633 20.7576 0.11401C16.688 0.452384 14.1556 1.09332 11.3967 2.46729C9.27058 3.52334 7.59378 4.74748 5.9389 6.46347C2.92504 9.59289 1.09846 13.4429 0.437243 18.0194C0.115765 20.2411 0.0222437 20.6942 0.00324725 32.0426C-0.00405907 35.8253 0.00324725 40.8038 0.00324725 47.4814C0.00324725 67.3015 0.0251662 73.097 0.120148 74.2225C0.448933 78.1836 1.06997 80.6757 2.38511 83.4017C4.89848 88.6198 9.69873 92.5371 15.3538 93.9988C17.3119 94.503 19.4746 94.7807 22.251 94.9123C23.4273 94.9634 35.417 95 47.4139 95C59.4109 95 71.4079 94.9854 72.555 94.9269C75.7698 94.7756 77.6365 94.5249 79.7006 93.9914C82.5046 93.2722 85.1179 91.9493 87.3578 90.1152C89.5978 88.2811 91.4105 85.9799 92.6693 83.3725C93.9589 80.7122 94.6128 78.1251 94.9087 74.3708C94.973 73.5523 95 60.5018 95 47.4689C95 34.4338 94.9708 21.4075 94.9065 20.589C94.6069 16.774 93.953 14.2088 92.6218 11.4974C91.5295 9.2779 90.3167 7.62038 88.5558 5.92558C85.4141 2.92332 81.571 1.09625 76.9907 0.435575C74.7717 0.11474 74.3297 0.0197324 62.9757 0H47.5155Z" fill="url(#paint0_radial_5734_20046)"/>
<path d="M47.5155 0C27.6847 0 21.8849 0.0204633 20.7576 0.11401C16.688 0.452384 14.1556 1.09332 11.3967 2.46729C9.27058 3.52334 7.59378 4.74748 5.9389 6.46347C2.92504 9.59289 1.09846 13.4429 0.437243 18.0194C0.115765 20.2411 0.0222437 20.6942 0.00324725 32.0426C-0.00405907 35.8253 0.00324725 40.8038 0.00324725 47.4814C0.00324725 67.3015 0.0251662 73.097 0.120148 74.2225C0.448933 78.1836 1.06997 80.6757 2.38511 83.4017C4.89848 88.6198 9.69873 92.5371 15.3538 93.9988C17.3119 94.503 19.4746 94.7807 22.251 94.9123C23.4273 94.9634 35.417 95 47.4139 95C59.4109 95 71.4079 94.9854 72.555 94.9269C75.7698 94.7756 77.6365 94.5249 79.7006 93.9914C82.5046 93.2722 85.1179 91.9493 87.3578 90.1152C89.5978 88.2811 91.4105 85.9799 92.6693 83.3725C93.9589 80.7122 94.6128 78.1251 94.9087 74.3708C94.973 73.5523 95 60.5018 95 47.4689C95 34.4338 94.9708 21.4075 94.9065 20.589C94.6069 16.774 93.953 14.2088 92.6218 11.4974C91.5295 9.2779 90.3167 7.62038 88.5558 5.92558C85.4141 2.92332 81.571 1.09625 76.9907 0.435575C74.7717 0.11474 74.3297 0.0197324 62.9757 0H47.5155Z" fill="url(#paint1_radial_5734_20046)"/>
<path d="M47.4934 12.4229C37.9689 12.4229 36.7736 12.4645 33.0327 12.6348C29.2992 12.8058 26.7508 13.397 24.5209 14.2645C22.2143 15.1605 20.2577 16.3591 18.3083 18.3097C16.3575 20.2596 15.1593 22.2167 14.2606 24.5232C13.3912 26.7544 12.7994 29.3043 12.6313 33.0374C12.4647 36.7793 12.4209 37.9756 12.4209 47.5027C12.4209 57.0298 12.4633 58.2218 12.6328 61.9637C12.8045 65.6982 13.3956 68.2474 14.2621 70.4779C15.1586 72.7851 16.3568 74.7423 18.3069 76.6921C20.2555 78.6434 22.2121 79.8449 24.5172 80.7409C26.7486 81.6084 29.2978 82.1997 33.0306 82.3707C36.7714 82.541 37.966 82.5826 47.4898 82.5826C57.015 82.5826 58.2067 82.541 61.9475 82.3707C65.681 82.1997 68.2324 81.6084 70.4637 80.7409C72.7696 79.8449 74.7233 78.6434 76.6719 76.6921C78.6227 74.7423 79.8209 72.7851 80.7196 70.4786C81.5818 68.2474 82.1736 65.6975 82.3489 61.9644C82.517 58.2226 82.5608 57.0298 82.5608 47.5027C82.5608 37.9756 82.517 36.78 82.3489 33.0381C82.1736 29.3036 81.5818 26.7544 80.7196 24.5239C79.8209 22.2167 78.6227 20.2596 76.6719 18.3097C74.7211 16.3584 72.7703 15.1598 70.4616 14.2645C68.2258 13.397 65.6759 12.8058 61.9424 12.6348C58.2016 12.4645 57.0106 12.4229 47.4832 12.4229H47.4934ZM44.3473 18.7445C45.2811 18.7431 46.3229 18.7445 47.4934 18.7445C56.8572 18.7445 57.967 18.7782 61.6647 18.9462C65.0841 19.1026 66.9399 19.6742 68.1761 20.1543C69.8127 20.7901 70.9796 21.5502 72.2063 22.778C73.4338 24.0058 74.1936 25.1751 74.8307 26.8122C75.3108 28.0473 75.8828 29.9036 76.0385 33.3239C76.2065 37.0219 76.243 38.1327 76.243 47.4947C76.243 56.8566 76.2065 57.9675 76.0385 61.6655C75.8821 65.0858 75.3108 66.9421 74.8307 68.1772C74.1951 69.8143 73.4338 70.9799 72.2063 72.207C70.9788 73.4348 69.8135 74.1949 68.1761 74.8307C66.9414 75.313 65.0841 75.8831 61.6647 76.0395C57.9678 76.2076 56.8572 76.2441 47.4934 76.2441C38.1289 76.2441 37.0191 76.2076 33.3221 76.0395C29.9027 75.8816 28.0469 75.3101 26.81 74.83C25.1733 74.1941 24.0043 73.4341 22.7769 72.2063C21.5494 70.9785 20.7896 69.8121 20.1524 68.1743C19.6724 66.9392 19.1003 65.0829 18.9447 61.6626C18.7767 57.9646 18.7431 56.8537 18.7431 47.4859C18.7431 38.1181 18.7767 37.0131 18.9447 33.3151C19.1011 29.8948 19.6724 28.0385 20.1524 26.8019C20.7881 25.1649 21.5494 23.9956 22.7769 22.7678C24.0043 21.54 25.1733 20.7799 26.81 20.1426C28.0462 19.6603 29.9027 19.0902 33.3221 18.9331C36.5573 18.7869 37.8111 18.7431 44.3473 18.7358V18.7445ZM66.2137 24.5693C65.3812 24.5693 64.5675 24.8162 63.8754 25.2788C63.1833 25.7414 62.6439 26.399 62.3254 27.1682C62.0069 27.9375 61.9237 28.784 62.0862 29.6006C62.2487 30.4173 62.6497 31.1673 63.2384 31.756C63.8271 32.3447 64.5771 32.7455 65.3935 32.9077C66.21 33.07 67.0562 32.9864 67.8252 32.6676C68.5941 32.3487 69.2513 31.809 69.7136 31.1165C70.1758 30.424 70.4224 29.61 70.4221 28.7774C70.4221 26.4533 68.5371 24.5678 66.2137 24.5678V24.5693ZM47.4934 29.4878C37.5473 29.4878 29.4833 37.5539 29.4833 47.5027C29.4833 57.4515 37.5473 65.5141 47.4934 65.5141C57.4395 65.5141 65.5013 57.4515 65.5013 47.5027C65.5013 37.5539 57.4388 29.4878 47.4927 29.4878H47.4934ZM47.4934 35.8094C53.9493 35.8094 59.1835 41.0444 59.1835 47.5027C59.1835 53.9604 53.9493 59.196 47.4934 59.196C41.0368 59.196 35.8033 53.9604 35.8033 47.5027C35.8033 41.0444 41.0368 35.8094 47.4934 35.8094Z" fill="white"/>
<defs>
<radialGradient id="paint0_radial_5734_20046" cx="0" cy="0" r="1" gradientUnits="userSpaceOnUse" gradientTransform="translate(25.2345 102.317) rotate(-90) scale(94.152 87.5688)">
<stop stop-color="#FFDD55"/>
<stop offset="0.1" stop-color="#FFDD55"/>
<stop offset="0.5" stop-color="#FF543E"/>
<stop offset="1" stop-color="#C837AB"/>
</radialGradient>
<radialGradient id="paint1_radial_5734_20046" cx="0" cy="0" r="1" gradientUnits="userSpaceOnUse" gradientTransform="translate(-15.913 6.84364) rotate(78.6806) scale(42.0863 173.482)">
<stop stop-color="#3771C8"/>
<stop offset="0.128" stop-color="#3771C8"/>
<stop offset="1" stop-color="#6600FF" stop-opacity="0"/>
</radialGradient>
</defs>
</svg>
