<svg width="101" height="101" viewBox="0 0 168 161" fill="none" xmlns="http://www.w3.org/2000/svg">
<path d="M6.6748 154.445L17.5939 116.47C10.8571 105.357 7.31567 92.748 7.31952 79.8342C7.33618 39.429 41.8623 6.55664 84.284 6.55664C104.874 6.56519 124.199 14.197 138.727 28.0483C153.259 41.8997 161.257 60.3115 161.25 79.8916C161.232 120.298 126.704 153.174 84.2878 153.174C84.284 153.174 84.2891 153.174 84.2878 153.174H84.2532C71.373 153.169 58.7159 150.091 47.4751 144.256L6.6748 154.445Z" fill="#64B161"/>
<path d="M3.90332 157.095L15.2134 117.76C8.23688 106.248 4.56726 93.1888 4.57239 79.8099C4.59033 37.9557 40.3534 3.9043 84.2992 3.9043C105.625 3.91284 125.642 11.8181 140.694 26.1662C155.746 40.5143 164.032 59.5865 164.025 79.8709C164.005 121.724 128.237 155.78 84.2992 155.78C84.2966 155.78 84.3005 155.78 84.2992 155.78H84.2646C70.9217 155.775 57.812 152.588 46.1674 146.539L3.90332 157.095ZM48.1246 132.798L50.5458 134.164C60.7177 139.913 72.3803 142.954 84.2735 142.96H84.2992C120.821 142.96 150.547 114.655 150.563 79.866C150.569 63.0069 143.683 47.1537 131.172 35.2287C118.66 23.3037 102.024 16.7326 84.3235 16.7253C47.7722 16.7253 18.0473 45.0272 18.0332 79.8148C18.0281 91.7361 21.5298 103.345 28.1641 113.391L29.7406 115.779L23.0448 139.06L48.1246 132.798Z" fill="white"/>
<path fill-rule="evenodd" clip-rule="evenodd" d="M64.3731 48.0767C62.8811 44.9175 61.3097 44.854 59.8895 44.7991C58.7283 44.7515 57.3991 44.7539 56.0725 44.7539C54.7447 44.7539 52.5862 45.23 50.761 47.1282C48.9346 49.0264 43.7871 53.6163 43.7871 62.951C43.7871 72.287 50.9264 81.3069 51.9223 82.574C52.9182 83.8398 65.7035 103.608 85.9511 111.213C102.779 117.534 106.202 116.277 109.855 115.96C113.508 115.644 121.641 111.37 123.301 106.941C124.962 102.511 124.962 98.7142 124.463 97.9195C123.965 97.1297 122.637 96.6548 120.645 95.7063C118.653 94.7579 108.86 90.1668 107.033 89.5344C105.207 88.9009 103.879 88.5859 102.551 90.4854C101.222 92.3824 97.4072 96.6548 96.2447 97.9195C95.0822 99.1878 93.9196 99.3465 91.9278 98.3968C89.936 97.4459 83.5196 95.4439 75.9087 88.9802C69.9871 83.9521 65.988 77.7412 64.8255 75.8417C63.6643 73.9448 64.8063 73.0072 65.7009 71.9709C67.3121 70.1044 70.0153 66.7487 70.6792 65.484C71.3431 64.2169 71.0112 63.1097 70.5139 62.16C70.0153 61.2115 66.1431 51.8292 64.3731 48.0767Z" fill="white"/>
</svg>
