<svg width="91" height="63" viewBox="0 0 91 63" fill="none" xmlns="http://www.w3.org/2000/svg">
<path d="M6.288 47.66V48.776H4.068V56H2.7V48.776H0.468V47.66H6.288ZM8.36944 48.512C8.12144 48.512 7.91344 48.428 7.74544 48.26C7.57744 48.092 7.49344 47.884 7.49344 47.636C7.49344 47.388 7.57744 47.18 7.74544 47.012C7.91344 46.844 8.12144 46.76 8.36944 46.76C8.60944 46.76 8.81344 46.844 8.98144 47.012C9.14944 47.18 9.23344 47.388 9.23344 47.636C9.23344 47.884 9.14944 48.092 8.98144 48.26C8.81344 48.428 8.60944 48.512 8.36944 48.512ZM9.04144 49.388V56H7.67344V49.388H9.04144ZM10.3815 52.664C10.3815 52 10.5175 51.412 10.7895 50.9C11.0695 50.388 11.4455 49.992 11.9175 49.712C12.3975 49.424 12.9295 49.28 13.5135 49.28C13.9455 49.28 14.3695 49.376 14.7855 49.568C15.2095 49.752 15.5455 50 15.7935 50.312V47.12H17.1735V56H15.7935V55.004C15.5695 55.324 15.2575 55.588 14.8575 55.796C14.4655 56.004 14.0135 56.108 13.5015 56.108C12.9255 56.108 12.3975 55.964 11.9175 55.676C11.4455 55.38 11.0695 54.972 10.7895 54.452C10.5175 53.924 10.3815 53.328 10.3815 52.664ZM15.7935 52.688C15.7935 52.232 15.6975 51.836 15.5055 51.5C15.3215 51.164 15.0775 50.908 14.7735 50.732C14.4695 50.556 14.1415 50.468 13.7895 50.468C13.4375 50.468 13.1095 50.556 12.8055 50.732C12.5015 50.9 12.2535 51.152 12.0615 51.488C11.8775 51.816 11.7855 52.208 11.7855 52.664C11.7855 53.12 11.8775 53.52 12.0615 53.864C12.2535 54.208 12.5015 54.472 12.8055 54.656C13.1175 54.832 13.4455 54.92 13.7895 54.92C14.1415 54.92 14.4695 54.832 14.7735 54.656C15.0775 54.48 15.3215 54.224 15.5055 53.888C15.6975 53.544 15.7935 53.144 15.7935 52.688ZM18.5143 52.664C18.5143 52 18.6503 51.412 18.9223 50.9C19.2023 50.388 19.5783 49.992 20.0503 49.712C20.5303 49.424 21.0583 49.28 21.6343 49.28C22.1543 49.28 22.6063 49.384 22.9903 49.592C23.3823 49.792 23.6943 50.044 23.9263 50.348V49.388H25.3063V56H23.9263V55.016C23.6943 55.328 23.3783 55.588 22.9783 55.796C22.5783 56.004 22.1223 56.108 21.6103 56.108C21.0423 56.108 20.5223 55.964 20.0503 55.676C19.5783 55.38 19.2023 54.972 18.9223 54.452C18.6503 53.924 18.5143 53.328 18.5143 52.664ZM23.9263 52.688C23.9263 52.232 23.8303 51.836 23.6383 51.5C23.4543 51.164 23.2103 50.908 22.9063 50.732C22.6023 50.556 22.2743 50.468 21.9223 50.468C21.5703 50.468 21.2423 50.556 20.9383 50.732C20.6343 50.9 20.3863 51.152 20.1943 51.488C20.0103 51.816 19.9183 52.208 19.9183 52.664C19.9183 53.12 20.0103 53.52 20.1943 53.864C20.3863 54.208 20.6343 54.472 20.9383 54.656C21.2503 54.832 21.5783 54.92 21.9223 54.92C22.2743 54.92 22.6023 54.832 22.9063 54.656C23.2103 54.48 23.4543 54.224 23.6383 53.888C23.8303 53.544 23.9263 53.144 23.9263 52.688ZM29.7191 52.7L32.7671 56H30.9191L28.4711 53.156V56H27.1031V47.12H28.4711V52.28L30.8711 49.388H32.7671L29.7191 52.7ZM42.2528 47.66V48.776H40.0328V56H38.6648V48.776H36.4328V47.66H42.2528ZM49.6983 52.532C49.6983 52.78 49.6823 53.004 49.6503 53.204H44.5983C44.6383 53.732 44.8343 54.156 45.1863 54.476C45.5383 54.796 45.9703 54.956 46.4823 54.956C47.2183 54.956 47.7383 54.648 48.0423 54.032H49.5183C49.3183 54.64 48.9543 55.14 48.4263 55.532C47.9063 55.916 47.2583 56.108 46.4823 56.108C45.8503 56.108 45.2823 55.968 44.7783 55.688C44.2823 55.4 43.8903 55 43.6023 54.488C43.3223 53.968 43.1823 53.368 43.1823 52.688C43.1823 52.008 43.3183 51.412 43.5903 50.9C43.8703 50.38 44.2583 49.98 44.7543 49.7C45.2583 49.42 45.8343 49.28 46.4823 49.28C47.1063 49.28 47.6623 49.416 48.1503 49.688C48.6383 49.96 49.0183 50.344 49.2903 50.84C49.5623 51.328 49.6983 51.892 49.6983 52.532ZM48.2703 52.1C48.2623 51.596 48.0823 51.192 47.7303 50.888C47.3783 50.584 46.9423 50.432 46.4223 50.432C45.9503 50.432 45.5463 50.584 45.2103 50.888C44.8743 51.184 44.6743 51.588 44.6103 52.1H48.2703ZM52.4125 50.348C52.6125 50.012 52.8765 49.752 53.2045 49.568C53.5405 49.376 53.9365 49.28 54.3925 49.28V50.696H54.0445C53.5085 50.696 53.1005 50.832 52.8205 51.104C52.5485 51.376 52.4125 51.848 52.4125 52.52V56H51.0445V49.388H52.4125V50.348ZM58.05 56.108C57.53 56.108 57.062 56.016 56.646 55.832C56.238 55.64 55.914 55.384 55.674 55.064C55.434 54.736 55.306 54.372 55.29 53.972H56.706C56.73 54.252 56.862 54.488 57.102 54.68C57.35 54.864 57.658 54.956 58.026 54.956C58.41 54.956 58.706 54.884 58.914 54.74C59.13 54.588 59.238 54.396 59.238 54.164C59.238 53.916 59.118 53.732 58.878 53.612C58.646 53.492 58.274 53.36 57.762 53.216C57.266 53.08 56.862 52.948 56.55 52.82C56.238 52.692 55.966 52.496 55.734 52.232C55.51 51.968 55.398 51.62 55.398 51.188C55.398 50.836 55.502 50.516 55.71 50.228C55.918 49.932 56.214 49.7 56.598 49.532C56.99 49.364 57.438 49.28 57.942 49.28C58.694 49.28 59.298 49.472 59.754 49.856C60.218 50.232 60.466 50.748 60.498 51.404H59.13C59.106 51.108 58.986 50.872 58.77 50.696C58.554 50.52 58.262 50.432 57.894 50.432C57.534 50.432 57.258 50.5 57.066 50.636C56.874 50.772 56.778 50.952 56.778 51.176C56.778 51.352 56.842 51.5 56.97 51.62C57.098 51.74 57.254 51.836 57.438 51.908C57.622 51.972 57.894 52.056 58.254 52.16C58.734 52.288 59.126 52.42 59.43 52.556C59.742 52.684 60.01 52.876 60.234 53.132C60.458 53.388 60.574 53.728 60.582 54.152C60.582 54.528 60.478 54.864 60.27 55.16C60.062 55.456 59.766 55.688 59.382 55.856C59.006 56.024 58.562 56.108 58.05 56.108ZM68.1202 52.532C68.1202 52.78 68.1042 53.004 68.0722 53.204H63.0202C63.0602 53.732 63.2562 54.156 63.6082 54.476C63.9602 54.796 64.3922 54.956 64.9042 54.956C65.6402 54.956 66.1602 54.648 66.4642 54.032H67.9402C67.7402 54.64 67.3762 55.14 66.8482 55.532C66.3282 55.916 65.6802 56.108 64.9042 56.108C64.2722 56.108 63.7042 55.968 63.2002 55.688C62.7042 55.4 62.3122 55 62.0242 54.488C61.7442 53.968 61.6042 53.368 61.6042 52.688C61.6042 52.008 61.7402 51.412 62.0122 50.9C62.2922 50.38 62.6802 49.98 63.1762 49.7C63.6802 49.42 64.2562 49.28 64.9042 49.28C65.5282 49.28 66.0842 49.416 66.5722 49.688C67.0602 49.96 67.4402 50.344 67.7122 50.84C67.9842 51.328 68.1202 51.892 68.1202 52.532ZM66.6922 52.1C66.6842 51.596 66.5042 51.192 66.1522 50.888C65.8002 50.584 65.3642 50.432 64.8442 50.432C64.3722 50.432 63.9682 50.584 63.6322 50.888C63.2962 51.184 63.0962 51.588 63.0322 52.1H66.6922ZM69.0104 52.664C69.0104 52 69.1464 51.412 69.4184 50.9C69.6984 50.388 70.0744 49.992 70.5464 49.712C71.0264 49.424 71.5584 49.28 72.1424 49.28C72.5744 49.28 72.9984 49.376 73.4144 49.568C73.8384 49.752 74.1744 50 74.4224 50.312V47.12H75.8024V56H74.4224V55.004C74.1984 55.324 73.8864 55.588 73.4864 55.796C73.0944 56.004 72.6424 56.108 72.1304 56.108C71.5544 56.108 71.0264 55.964 70.5464 55.676C70.0744 55.38 69.6984 54.972 69.4184 54.452C69.1464 53.924 69.0104 53.328 69.0104 52.664ZM74.4224 52.688C74.4224 52.232 74.3264 51.836 74.1344 51.5C73.9504 51.164 73.7064 50.908 73.4024 50.732C73.0984 50.556 72.7704 50.468 72.4184 50.468C72.0664 50.468 71.7384 50.556 71.4344 50.732C71.1304 50.9 70.8824 51.152 70.6904 51.488C70.5064 51.816 70.4144 52.208 70.4144 52.664C70.4144 53.12 70.5064 53.52 70.6904 53.864C70.8824 54.208 71.1304 54.472 71.4344 54.656C71.7464 54.832 72.0744 54.92 72.4184 54.92C72.7704 54.92 73.0984 54.832 73.4024 54.656C73.7064 54.48 73.9504 54.224 74.1344 53.888C74.3264 53.544 74.4224 53.144 74.4224 52.688ZM78.2952 48.512C78.0472 48.512 77.8392 48.428 77.6712 48.26C77.5032 48.092 77.4192 47.884 77.4192 47.636C77.4192 47.388 77.5032 47.18 77.6712 47.012C77.8392 46.844 78.0472 46.76 78.2952 46.76C78.5352 46.76 78.7392 46.844 78.9072 47.012C79.0752 47.18 79.1592 47.388 79.1592 47.636C79.1592 47.884 79.0752 48.092 78.9072 48.26C78.7392 48.428 78.5352 48.512 78.2952 48.512ZM78.9672 49.388V56H77.5992V49.388H78.9672ZM80.3073 52.664C80.3073 52 80.4433 51.412 80.7153 50.9C80.9953 50.388 81.3713 49.992 81.8433 49.712C82.3233 49.424 82.8513 49.28 83.4273 49.28C83.9473 49.28 84.3993 49.384 84.7833 49.592C85.1753 49.792 85.4873 50.044 85.7193 50.348V49.388H87.0993V56H85.7193V55.016C85.4873 55.328 85.1713 55.588 84.7713 55.796C84.3713 56.004 83.9153 56.108 83.4033 56.108C82.8353 56.108 82.3153 55.964 81.8433 55.676C81.3713 55.38 80.9953 54.972 80.7153 54.452C80.4433 53.924 80.3073 53.328 80.3073 52.664ZM85.7193 52.688C85.7193 52.232 85.6233 51.836 85.4313 51.5C85.2473 51.164 85.0033 50.908 84.6993 50.732C84.3953 50.556 84.0673 50.468 83.7153 50.468C83.3633 50.468 83.0353 50.556 82.7313 50.732C82.4273 50.9 82.1793 51.152 81.9873 51.488C81.8033 51.816 81.7113 52.208 81.7113 52.664C81.7113 53.12 81.8033 53.52 81.9873 53.864C82.1793 54.208 82.4273 54.472 82.7313 54.656C83.0433 54.832 83.3713 54.92 83.7153 54.92C84.0673 54.92 84.3953 54.832 84.6993 54.656C85.0033 54.48 85.2473 54.224 85.4313 53.888C85.6233 53.544 85.7193 53.144 85.7193 52.688Z" fill="black" fill-opacity="0.85"/>
<path d="M68.25 0H22.75C21.782 0 21 0.73125 21 1.63636V34.3636C21 35.2687 21.782 36 22.75 36H68.25C69.218 36 70 35.2687 70 34.3636V1.63636C70 0.73125 69.218 0 68.25 0ZM66.0625 32.3182H24.9375V30.2778L32.5117 21.8761L40.7203 30.9784L53.4898 16.8239L66.0625 30.7636V32.3182ZM66.0625 25.6807L53.8234 12.1091C53.6484 11.9148 53.3312 11.9148 53.1563 12.1091L40.7203 25.8955L32.8453 17.1665C32.6703 16.9722 32.3531 16.9722 32.1781 17.1665L24.9375 25.1949V3.68182H66.0625V25.6807Z" fill="#1652F9"/>
<path d="M34.125 15.1364C34.757 15.1364 35.3828 15.02 35.9667 14.7938C36.5505 14.5677 37.0811 14.2362 37.528 13.8183C37.9748 13.4005 38.3293 12.9044 38.5712 12.3584C38.813 11.8125 38.9375 11.2273 38.9375 10.6364C38.9375 10.0454 38.813 9.46025 38.5712 8.91429C38.3293 8.36832 37.9748 7.87225 37.528 7.45438C37.0811 7.03652 36.5505 6.70505 35.9667 6.47891C35.3828 6.25276 34.757 6.13636 34.125 6.13636C32.8486 6.13636 31.6246 6.61047 30.722 7.45438C29.8195 8.2983 29.3125 9.44289 29.3125 10.6364C29.3125 11.8298 29.8195 12.9744 30.722 13.8183C31.6246 14.6623 32.8486 15.1364 34.125 15.1364ZM34.125 9.20455C34.9727 9.20455 35.6563 9.84375 35.6563 10.6364C35.6563 11.429 34.9727 12.0682 34.125 12.0682C33.2773 12.0682 32.5938 11.429 32.5938 10.6364C32.5938 9.84375 33.2773 9.20455 34.125 9.20455Z" fill="#1652F9"/>
</svg>
