<svg width="50" height="50" viewBox="0 0 50 50" fill="none" xmlns="http://www.w3.org/2000/svg">
<g clip-path="url(#clip0_7250_24792)">
<path d="M25 50C38.8071 50 50 38.8071 50 25C50 11.1929 38.8071 0 25 0C11.1929 0 0 11.1929 0 25C0 38.8071 11.1929 50 25 50Z" fill="#3C5A99"/>
<path d="M26.9434 37.5V26.1133H30.7813L31.3574 21.6553H26.9434V18.8184C26.9434 17.5293 27.2998 16.6553 29.1455 16.6553H31.4844V12.6807C31.0791 12.627 29.6826 12.5049 28.0566 12.5049C24.6631 12.5049 22.3389 14.5752 22.3389 18.3789V21.6602H18.5156V26.1182H22.3389V37.5H26.9434Z" fill="white"/>
</g>
<defs>
<clipPath id="clip0_7250_24792">
<rect width="50" height="50" fill="white"/>
</clipPath>
</defs>
</svg>
