<svg width="50" height="50" viewBox="0 0 50 50" fill="none" xmlns="http://www.w3.org/2000/svg">
<g clip-path="url(#clip0_7250_24796)">
<path d="M49.7618 24.8809C49.7618 11.1396 38.6223 0 24.8809 0C11.1396 0 0 11.1396 0 24.8809C0 38.6223 11.1396 49.7618 24.8809 49.7618C38.6223 49.7618 49.7618 38.6223 49.7618 24.8809Z" fill="url(#paint0_linear_7250_24796)"/>
<path d="M20.7397 24.9447C20.7397 22.6525 22.5968 20.7939 24.8884 20.7939C27.1799 20.7939 29.038 22.6525 29.038 24.9447C29.038 27.2369 27.1799 29.0955 24.8884 29.0955C22.5968 29.0955 20.7397 27.2369 20.7397 24.9447ZM18.4965 24.9447C18.4965 28.4759 21.3581 31.3384 24.8884 31.3384C28.4186 31.3384 31.2802 28.4759 31.2802 24.9447C31.2802 21.4134 28.4186 18.551 24.8884 18.551C21.3581 18.551 18.4965 21.4134 18.4965 24.9447ZM30.0395 18.2975C30.0394 18.593 30.1269 18.8819 30.2909 19.1277C30.455 19.3735 30.6882 19.5651 30.9611 19.6783C31.234 19.7915 31.5343 19.8212 31.8241 19.7637C32.1139 19.7061 32.3801 19.5639 32.5891 19.355C32.7981 19.1462 32.9404 18.88 32.9982 18.5902C33.056 18.3003 33.0265 17.9999 32.9135 17.7268C32.8006 17.4538 32.6092 17.2203 32.3636 17.056C32.1181 16.8918 31.8293 16.804 31.5339 16.8039H31.5333C31.1373 16.8041 30.7575 16.9615 30.4774 17.2415C30.1974 17.5215 30.0399 17.9014 30.0395 18.2975ZM19.8594 35.0799C18.6458 35.0246 17.9861 34.8224 17.5478 34.6516C16.9666 34.4253 16.552 34.1557 16.116 33.7202C15.68 33.2847 15.4101 32.8703 15.1849 32.289C15.014 31.8507 14.8118 31.1907 14.7567 29.9767C14.6963 28.6642 14.6842 28.27 14.6842 24.9448C14.6842 21.6196 14.6973 21.2265 14.7567 19.9129C14.8119 18.6989 15.0156 18.0402 15.1849 17.6006C15.4111 17.0193 15.6806 16.6045 16.116 16.1684C16.5514 15.7322 16.9656 15.4623 17.5478 15.237C17.9859 15.066 18.6458 14.8638 19.8594 14.8087C21.1715 14.7483 21.5656 14.7362 24.8884 14.7362C28.2111 14.7362 28.6056 14.7493 29.9188 14.8087C31.1324 14.8639 31.791 15.0676 32.2304 15.237C32.8116 15.4623 33.2263 15.7328 33.6623 16.1684C34.0983 16.6039 34.3671 17.0193 34.5934 17.6006C34.7642 18.0389 34.9664 18.6989 35.0216 19.9129C35.082 21.2265 35.094 21.6196 35.094 24.9448C35.094 28.27 35.082 28.6631 35.0216 29.9767C34.9663 31.1907 34.7631 31.8505 34.5934 32.289C34.3671 32.8703 34.0977 33.2851 33.6623 33.7202C33.2269 34.1553 32.8116 34.4253 32.2304 34.6516C31.7923 34.8225 31.1324 35.0247 29.9188 35.0799C28.6067 35.1403 28.2125 35.1523 24.8884 35.1523C21.5642 35.1523 21.1711 35.1403 19.8594 35.0799ZM19.7564 12.5686C18.4312 12.6289 17.5256 12.8391 16.7349 13.1469C15.9159 13.4648 15.2226 13.8912 14.5298 14.5831C13.837 15.275 13.4118 15.9696 13.094 16.7888C12.7863 17.5803 12.5762 18.4856 12.5158 19.8112C12.4545 21.1388 12.4404 21.5633 12.4404 24.9447C12.4404 28.3261 12.4545 28.7506 12.5158 30.0782C12.5762 31.4038 12.7863 32.309 13.094 33.1006C13.4118 33.9193 13.8371 34.6146 14.5298 35.3063C15.2225 35.9978 15.9159 36.4237 16.7349 36.7425C17.5272 37.0503 18.4312 37.2604 19.7564 37.3208C21.0843 37.3812 21.5079 37.3962 24.8884 37.3962C28.2689 37.3962 28.6931 37.3822 30.0204 37.3208C31.3456 37.2604 32.2506 37.0503 33.0418 36.7425C33.8603 36.4237 34.5541 35.9982 35.247 35.3063C35.9397 34.6144 36.3641 33.9193 36.6827 33.1006C36.9904 32.309 37.2016 31.4038 37.2609 30.0782C37.3212 28.7496 37.3353 28.3261 37.3353 24.9447C37.3353 21.5633 37.3212 21.1388 37.2609 19.8112C37.2005 18.4856 36.9904 17.5798 36.6827 16.7888C36.3641 15.9701 35.9386 15.2762 35.247 14.5831C34.5552 13.8901 33.8603 13.4648 33.0429 13.1469C32.2506 12.8391 31.3455 12.6279 30.0214 12.5686C28.6941 12.5082 28.2698 12.4932 24.8893 12.4932C21.5089 12.4932 21.0843 12.5072 19.7564 12.5686Z" fill="white"/>
</g>
<defs>
<linearGradient id="paint0_linear_7250_24796" x1="48.8054" y1="49.7618" x2="-0.956423" y2="1.14014e-07" gradientUnits="userSpaceOnUse">
<stop stop-color="#FBE18A"/>
<stop offset="0.21" stop-color="#FCBB45"/>
<stop offset="0.38" stop-color="#F75274"/>
<stop offset="0.52" stop-color="#D53692"/>
<stop offset="0.74" stop-color="#8F39CE"/>
<stop offset="1" stop-color="#5B4FE9"/>
</linearGradient>
<clipPath id="clip0_7250_24796">
<rect width="50" height="50" fill="white"/>
</clipPath>
</defs>
</svg>
