<svg width="108" height="78" viewBox="0 0 108 78" fill="none" xmlns="http://www.w3.org/2000/svg">
<path d="M104.825 53.625H102.15V37.1566C102.15 35.2219 101.297 33.3633 99.7927 31.9922L83.0906 16.773C81.5859 15.402 79.5462 14.625 77.423 14.625H70.05V7.3125C70.05 3.27539 66.4555 0 62.025 0H19.225C14.7945 0 11.2 3.27539 11.2 7.3125V14.625H1.8375C1.10187 14.625 0.5 15.1734 0.5 15.8437V18.2812C0.5 18.9516 1.10187 19.5 1.8375 19.5H47.3125C48.0481 19.5 48.65 20.0484 48.65 20.7188V23.1562C48.65 23.8266 48.0481 24.375 47.3125 24.375H7.1875C6.45187 24.375 5.85 24.9234 5.85 25.5938V28.0312C5.85 28.7016 6.45187 29.25 7.1875 29.25H41.9625C42.6981 29.25 43.3 29.7984 43.3 30.4687V32.9062C43.3 33.5766 42.6981 34.125 41.9625 34.125H1.8375C1.10187 34.125 0.5 34.6734 0.5 35.3438V37.7812C0.5 38.4516 1.10187 39 1.8375 39H36.6125C37.3481 39 37.95 39.5484 37.95 40.2188V42.6562C37.95 43.3266 37.3481 43.875 36.6125 43.875H11.2V63.375C11.2 71.4492 18.3891 78 27.25 78C36.1109 78 43.3 71.4492 43.3 63.375H64.7C64.7 71.4492 71.8891 78 80.75 78C89.6109 78 96.8 71.4492 96.8 63.375H104.825C106.296 63.375 107.5 62.2781 107.5 60.9375V56.0625C107.5 54.7219 106.296 53.625 104.825 53.625ZM27.25 70.6875C22.8195 70.6875 19.225 67.4121 19.225 63.375C19.225 59.3379 22.8195 56.0625 27.25 56.0625C31.6805 56.0625 35.275 59.3379 35.275 63.375C35.275 67.4121 31.6805 70.6875 27.25 70.6875ZM80.75 70.6875C76.3195 70.6875 72.725 67.4121 72.725 63.375C72.725 59.3379 76.3195 56.0625 80.75 56.0625C85.1805 56.0625 88.775 59.3379 88.775 63.375C88.775 67.4121 85.1805 70.6875 80.75 70.6875ZM94.125 39H70.05V21.9375H77.423L94.125 37.1566V39Z" fill="#5B4BBB"/>
</svg>
