<svg width="77" height="75" viewBox="0 0 77 75" fill="none" xmlns="http://www.w3.org/2000/svg">
<g clip-path="url(#clip0_5734_20105)">
<path d="M1.51293 0C0.677441 0.000405 0.0002772 0.707189 0 1.5791V54.6709C0.0002772 55.5428 0.677441 56.2496 1.51293 56.25H33.8319C32.6733 55.3031 31.6143 54.2407 30.6692 53.0903H27.4508C27.8813 52.1664 28.2939 51.2245 28.6945 50.2705C28.4435 49.8429 28.211 49.4059 27.9907 48.9624C27.426 50.3755 26.8183 51.7474 26.1785 53.0903H22.7676C23.9429 50.7339 25.0163 48.3146 25.9213 45.7544C24.1229 44.3122 22.9722 42.1287 22.9722 39.6958C22.9722 37.6318 23.8064 35.7526 25.1558 34.3477C20.6053 24.4404 12.3857 19.3477 3.02736 13.9365V10.4312C12.6659 15.9687 21.8649 21.2598 27.2252 31.6274C27.4008 31.1703 27.5948 30.7201 27.8012 30.2754C22.1088 19.9416 12.6395 14.6399 3.02736 9.11865V8.02441C14.4292 15.4024 24.2904 19.2358 35.0921 21.605C38.6895 19.087 43.0418 17.5858 47.4813 17.4609C48.0876 17.4424 48.695 17.4482 49.3011 17.4756C50.6834 16.0346 52.0751 14.5871 53.4939 13.1104C54.7169 11.8375 55.9239 10.5616 57.1364 9.28564C57.0146 9.26539 56.9414 9.25661 56.8116 9.23438C55.433 8.99835 53.608 8.65061 51.4742 8.20312C47.2066 7.30815 41.7089 6.01577 36.1539 4.43115C34.7375 4.02711 33.3215 3.60037 31.9189 3.15967H43.0478C46.3512 3.99507 49.4902 4.71849 52.1224 5.27051C54.2239 5.71123 56.019 6.05268 57.3454 6.27979C58.0087 6.39334 58.5563 6.47823 58.9561 6.53174C59.356 6.58524 59.6881 6.59548 59.5682 6.59912L59.5727 6.71777C60.7019 5.51318 61.7885 4.33005 62.8528 3.15967H66.9584C63.5173 7.02982 59.6336 11.1127 55.7438 15.1611C54.838 16.1038 53.9657 17.0193 53.0713 17.9517C53.6569 18.0746 54.2377 18.218 54.8114 18.3867C61.6353 20.3072 67.2902 25.6261 69.5933 32.1592C70.7777 32.8341 71.8192 33.4222 72.5514 33.7734C72.5376 33.8489 72.5305 33.9253 72.5304 34.002C72.5304 34.7268 73.1337 35.3145 73.8779 35.3145C73.9105 35.3144 73.9405 35.3036 73.9726 35.3013V37.9482C73.9408 37.9461 73.9103 37.9395 73.8779 37.9395C73.874 37.9394 73.871 37.9394 73.8674 37.9395C73.1273 37.9451 72.5304 38.5311 72.5304 39.252C72.5304 39.9768 73.1337 40.5645 73.8779 40.5645C73.9102 40.5645 73.9409 40.5579 73.9726 40.5557V43.1982C73.9408 43.1961 73.9103 43.1895 73.8779 43.1895C73.1337 43.1895 72.5304 43.7771 72.5304 44.502C72.5304 45.2268 73.1337 45.8145 73.8779 45.8145C73.9102 45.8145 73.9409 45.8079 73.9726 45.8057V53.0903H66.5148C66.7358 53.2418 66.9477 53.405 67.1374 53.5928C67.8455 54.4723 68.5363 55.3647 69.2368 56.25H75.4871C76.3226 56.2496 76.9997 55.5428 77 54.6709V1.5791C76.9997 0.707189 76.3226 0.000405 75.4871 0L1.51293 0ZM18.7672 3.15967H28.3035C30.7594 3.99781 33.2939 4.78758 35.8291 5.51074C41.4188 7.10528 46.9403 8.40317 51.2321 9.30322C52.5977 9.58961 53.778 9.8186 54.8595 10.021C54.1193 10.7961 53.3935 11.5693 52.6518 12.3413C52.3767 12.6276 52.1126 12.9028 51.8381 13.188C46.8387 11.663 41.1187 10.146 33.7627 8.64404C28.5736 7.58456 23.5701 5.67065 18.7672 3.15967ZM47.8197 3.15967H61.2917C60.6028 3.91283 59.929 4.65713 59.2118 5.42578C59.1731 5.42158 59.1523 5.42233 59.1125 5.41699C58.7347 5.36643 58.1989 5.28278 57.5455 5.1709C56.2385 4.94714 54.4554 4.60859 52.366 4.17041C50.9849 3.88077 49.4268 3.53183 47.8197 3.15967ZM68.4909 3.15967H73.9726V6.44824C73.9408 6.44607 73.9103 6.43945 73.8779 6.43945C73.874 6.43944 73.871 6.43944 73.8674 6.43945C73.1273 6.44508 72.5304 7.03106 72.5304 7.75195C72.5304 8.47683 73.1337 9.06445 73.8779 9.06445C73.9102 9.06445 73.9409 9.05785 73.9726 9.05566V11.6982C73.9408 11.6961 73.9103 11.6895 73.8779 11.6895C73.874 11.6894 73.871 11.6894 73.8674 11.6895C73.1273 11.6951 72.5304 12.2811 72.5304 13.002C72.5304 13.7268 73.1337 14.3145 73.8779 14.3145C73.9102 14.3145 73.9409 14.3079 73.9726 14.3057V16.9482C73.9408 16.9461 73.9103 16.9395 73.8779 16.9395C73.1337 16.9395 72.5304 17.5271 72.5304 18.252C72.5304 18.9768 73.1337 19.5645 73.8779 19.5645C73.9102 19.5645 73.9409 19.5579 73.9726 19.5557V20.5269C73.3629 20.3382 72.7422 20.1501 72.1484 19.9614C71.8947 19.7076 71.5465 19.5645 71.1829 19.5645C71.1088 19.5649 71.0348 19.5712 70.9618 19.5835C70.4686 19.4238 69.9945 19.2643 69.512 19.1045C69.7206 18.8669 69.8353 18.5646 69.8354 18.252C69.8354 17.5271 69.2321 16.9395 68.4879 16.9395C67.7437 16.9395 67.1404 17.5271 67.1404 18.252C67.1404 18.2725 67.1409 18.293 67.1419 18.3135C66.0435 17.9396 64.9685 17.5653 63.8904 17.1914C63.6789 17.0411 63.427 16.954 63.1656 16.9409C62.6181 16.7509 62.0616 16.5611 61.5128 16.3711C61.6675 16.1522 61.7504 15.8927 61.7504 15.627C61.7508 15.2008 61.5389 14.801 61.1819 14.5547L59.9532 15.8364C59.147 15.5598 58.2905 15.2837 57.4658 15.0073C61.316 10.9977 65.1295 6.97796 68.4909 3.15967ZM72.3875 4.53955C71.497 4.75392 70.7413 5.13055 69.9707 5.69824C70.1956 6.15117 70.6664 6.43908 71.1829 6.43945C71.9271 6.43945 72.5304 5.85183 72.5304 5.12695C72.5303 4.923 72.4813 4.72188 72.3875 4.53955ZM68.9827 6.53174C68.4495 7.01457 67.8857 7.56431 67.2366 8.23975C67.4414 8.73796 67.9369 9.06456 68.4879 9.06445C69.2321 9.06445 69.8354 8.47683 69.8354 7.75195C69.8351 7.21332 69.497 6.72952 68.9827 6.53174ZM71.1724 9.06445C70.4323 9.07008 69.8354 9.65606 69.8354 10.377C69.8354 11.1018 70.4387 11.6895 71.1829 11.6895C71.9271 11.6895 72.5304 11.1018 72.5304 10.377C72.5304 9.65208 71.9271 9.06445 71.1829 9.06445C71.179 9.06444 71.176 9.06444 71.1724 9.06445ZM66.3373 9.17578L64.6003 10.9878C64.8332 11.4192 65.2924 11.6894 65.7929 11.6895C66.5371 11.6895 67.1404 11.1018 67.1404 10.377C67.1406 9.85696 66.8257 9.38587 66.3373 9.17578ZM68.4774 11.6895C67.7373 11.6951 67.1404 12.2811 67.1404 13.002C67.1404 13.7268 67.7437 14.3145 68.4879 14.3145C69.2321 14.3145 69.8354 13.7268 69.8354 13.002C69.8354 12.2771 69.2321 11.6895 68.4879 11.6895C68.484 11.6894 68.481 11.6894 68.4774 11.6895ZM63.7641 11.8608L61.976 13.7271C62.2253 14.0935 62.6465 14.314 63.0979 14.3145C63.8421 14.3145 64.4454 13.7268 64.4454 13.002C64.4455 12.5299 64.1854 12.0942 63.7641 11.8608ZM65.7824 14.3145C65.0423 14.3201 64.4454 14.9061 64.4454 15.627C64.4454 16.3518 65.0487 16.9395 65.7929 16.9395C66.5371 16.9395 67.1404 16.3518 67.1404 15.627C67.1404 14.9021 66.5371 14.3145 65.7929 14.3145C65.789 14.3144 65.786 14.3144 65.7824 14.3145ZM71.1724 14.3145C70.4323 14.3201 69.8354 14.9061 69.8354 15.627C69.8354 16.3518 70.4387 16.9395 71.1829 16.9395C71.9271 16.9395 72.5304 16.3518 72.5304 15.627C72.5304 14.9021 71.9271 14.3145 71.1829 14.3145C71.179 14.3144 71.176 14.3144 71.1724 14.3145ZM3.02736 15.2505C11.8646 20.3812 19.4443 25.2053 23.8023 34.1675C22.5647 35.6961 21.8172 37.6156 21.8172 39.6958C21.8172 42.1839 22.881 44.4452 24.5829 46.0767C23.6866 48.5103 22.6345 50.825 21.4848 53.0903H18.1521L20.2696 49.519L18.0198 48.2534L18.8214 46.8999L15.7053 45.1479L10.9966 53.0903H3.02736V26.8652L8.94373 30.3018L12.6223 24.293L3.02736 18.7192V15.2505ZM45.1653 28.0635C44.3431 28.2848 43.5444 28.5864 42.7861 28.9688C42.7857 28.9693 42.7851 28.9697 42.7846 28.9702C40.6331 31.4114 38.8676 33.5774 37.7074 35.3188C38.5774 36.5715 39.0865 38.0783 39.0865 39.6958C39.0865 41.0408 38.7338 42.3086 38.115 43.418C40.5268 45.2547 42.47 47.7295 44.2058 50.4814C44.739 50.6715 45.2865 50.8219 45.8451 50.9326C44.0797 47.976 42.0924 45.2301 39.5437 43.0972C39.9916 42.0458 40.2415 40.8978 40.2415 39.6958C40.2415 38.1229 39.8135 36.642 39.0715 35.3511C40.4459 33.4078 42.6171 30.8762 45.1653 28.0635ZM51.7434 28.1265C51.6822 28.7242 51.6876 29.3296 51.7569 29.9443C51.9329 30.0232 52.1242 30.0641 52.3179 30.0645C53.0189 30.0645 53.5889 29.5414 53.6534 28.875C53.0385 28.575 52.4009 28.321 51.7434 28.1265ZM14.0119 29.9194L11.2221 34.626L9.34978 37.7842L14.1818 40.5015L16.0542 37.3433L17.9732 38.4229L20.7629 33.7163L18.8439 32.6367L14.0119 29.9194ZM55.0024 30.0645C54.2623 30.0701 53.6654 30.6561 53.6654 31.377C53.6654 32.1018 54.2687 32.6895 55.0129 32.6895C55.7571 32.6895 56.3604 32.1018 56.3604 31.377C56.3604 30.6521 55.7571 30.0645 55.0129 30.0645C55.009 30.0644 55.006 30.0644 55.0024 30.0645ZM57.6974 32.6895C56.9573 32.6951 56.3604 33.2811 56.3604 34.002C56.3604 34.7268 56.9637 35.3145 57.7079 35.3145C58.4357 35.3145 59.025 34.7515 59.0509 34.0488C58.8336 33.6309 58.5918 33.2271 58.323 32.8403C58.1378 32.7471 57.9307 32.6895 57.7079 32.6895C57.704 32.6894 57.701 32.6894 57.6974 32.6895ZM52.5284 32.7056C52.539 32.7287 52.5447 32.7513 52.5555 32.7744C52.5379 33.8342 52.4919 34.6214 52.4487 35.3071C53.1385 35.2416 53.6648 34.677 53.6654 34.002C53.6654 33.3562 53.1832 32.8065 52.5284 32.7056ZM55.0024 35.3145C54.2623 35.3201 53.6654 35.9061 53.6654 36.627C53.6654 37.3518 54.2687 37.9395 55.0129 37.9395C55.7571 37.9395 56.3604 37.3518 56.3604 36.627C56.3604 35.9021 55.7571 35.3145 55.0129 35.3145C55.009 35.3144 55.006 35.3144 55.0024 35.3145ZM71.1724 35.3145C70.9225 35.3164 70.6909 35.3878 70.4911 35.5049C70.633 36.2892 70.7339 37.0804 70.7859 37.875C70.912 37.9131 71.0439 37.9395 71.1829 37.9395C71.9271 37.9395 72.5304 37.3518 72.5304 36.627C72.5304 35.9021 71.9271 35.3145 71.1829 35.3145C71.179 35.3144 71.176 35.3144 71.1724 35.3145ZM59.7006 35.5107C59.3144 35.7417 59.0554 36.1537 59.0554 36.627C59.0554 37.3118 59.5955 37.8677 60.2826 37.9277C60.1787 37.1045 59.985 36.2936 59.7006 35.5107ZM57.6974 37.9395C56.9573 37.9451 56.3604 38.5311 56.3604 39.252C56.3604 39.9768 56.9637 40.5645 57.7079 40.5645C58.4521 40.5645 59.0554 39.9768 59.0554 39.252C59.0554 38.5271 58.4521 37.9395 57.7079 37.9395C57.704 37.9394 57.701 37.9394 57.6974 37.9395ZM52.5435 37.957C52.7155 38.374 53.0496 38.7026 53.6549 39.0923C53.5829 38.5161 53.1309 38.0545 52.5435 37.957ZM71.1724 40.5645C71.0375 40.5655 70.91 40.5906 70.7874 40.6274C70.7375 41.4254 70.6519 42.2222 70.5152 43.0107C70.7127 43.1214 70.9387 43.1895 71.1829 43.1895C71.9271 43.1895 72.5304 42.6018 72.5304 41.877C72.5304 41.1521 71.9271 40.5645 71.1829 40.5645C71.179 40.5644 71.176 40.5644 71.1724 40.5645ZM60.3127 40.5732C59.6108 40.6195 59.0554 41.1828 59.0554 41.877C59.0554 42.3867 59.3565 42.8241 59.7923 43.0415C60.0545 42.2398 60.2275 41.4113 60.3127 40.5732ZM50.6741 41.8945C48.1891 41.8945 46.1489 43.8818 46.1489 46.3022C46.1489 48.7227 48.1891 50.7085 50.6741 50.7085C53.1591 50.7085 55.1979 48.7227 55.1979 46.3022C55.1979 43.8818 53.1591 41.8945 50.6741 41.8945ZM50.6741 44.1445C51.9107 44.1445 52.8879 45.0978 52.8879 46.3022C52.8879 47.5067 51.9107 48.4585 50.6741 48.4585C49.4375 48.4585 48.4589 47.5067 48.4589 46.3022C48.4589 45.0978 49.4375 44.1445 50.6741 44.1445Z" fill="#000080"/>
<path d="M50.9187 20.6211C45.9738 19.9689 40.774 21.1479 36.5042 24.3146C27.9648 30.6481 26.3046 42.589 32.807 50.9067C38.8936 58.6925 50.0084 60.5694 58.4094 55.5845L60.0137 57.6366C59.8576 57.9903 59.7841 58.3408 59.7982 58.6637C59.8123 58.9866 59.9136 59.2744 60.0952 59.507L71.7368 74.3985C72.0698 74.8241 72.6505 75.0383 73.3512 74.9941C74.0519 74.9498 74.8153 74.6508 75.4735 74.1626C76.1316 73.6745 76.6306 73.0373 76.8608 72.3911C77.0909 71.7449 77.0334 71.1427 76.7007 70.7169L65.0591 55.8254C64.8772 55.5928 64.6192 55.421 64.3032 55.3219C63.9871 55.2227 63.6205 55.1986 63.2287 55.2512L61.6245 53.1991C68.7925 46.6369 69.8921 35.7017 63.8054 27.9158C60.5542 23.757 55.8636 21.2734 50.9187 20.6211ZM50.3413 24.7738C54.1794 25.2801 57.8188 27.2188 60.3614 30.4711C65.4464 36.9757 64.1638 46.2005 57.4858 51.1534C50.8077 56.1064 41.3369 54.8571 36.2519 48.3525C31.1668 41.8479 32.4494 32.6231 39.1275 27.6702C42.4665 25.1937 46.5032 24.2675 50.3413 24.7738Z" fill="#000080"/>
</g>
<defs>
<clipPath id="clip0_5734_20105">
<rect width="77" height="75" fill="white"/>
</clipPath>
</defs>
</svg>
