<svg width="194" height="131" viewBox="0 0 194 131" fill="none" xmlns="http://www.w3.org/2000/svg">
<path d="M142.61 31.2871H51.391C50.1482 31.2871 49.1406 32.1942 49.1406 33.3132V86.163C49.1406 87.282 50.1482 88.1891 51.391 88.1891H142.61C143.853 88.1891 144.86 87.282 144.86 86.163V33.3132C144.86 32.1942 143.853 31.2871 142.61 31.2871Z" fill="#093F68"/>
<path d="M142.59 88.6434H51.4102C50.6843 88.6423 49.9885 88.3818 49.4757 87.9193C48.9628 87.4567 48.6748 86.8298 48.6748 86.1763V33.3178C48.6748 32.6642 48.9628 32.0373 49.4757 31.5747C49.9885 31.1122 50.6843 30.8517 51.4102 30.8506H142.59C143.316 30.8517 144.012 31.1122 144.525 31.5747C145.038 32.0373 145.326 32.6642 145.326 33.3178V86.1544C145.329 86.4799 145.26 86.8027 145.124 87.1043C144.989 87.4058 144.788 87.6802 144.533 87.9116C144.279 88.1429 143.976 88.3267 143.643 88.4523C143.31 88.5779 142.952 88.6429 142.59 88.6434ZM51.4102 31.7239C50.9415 31.7251 50.4925 31.8935 50.1616 32.1923C49.8306 32.4911 49.6448 32.8958 49.6448 33.3178V86.1544C49.6416 86.3652 49.6849 86.5744 49.7721 86.77C49.8593 86.9657 49.9888 87.1437 50.1529 87.294C50.3171 87.4443 50.5128 87.5637 50.7286 87.6454C50.9444 87.7272 51.1761 87.7695 51.4102 87.7701H142.59C143.059 87.7689 143.508 87.6005 143.839 87.3017C144.17 87.0029 144.356 86.5982 144.356 86.1763V33.3178C144.356 32.8958 144.17 32.4911 143.839 32.1923C143.508 31.8935 143.059 31.7251 142.59 31.7239H51.4102Z" fill="#093F68"/>
<path d="M140.533 33.7412H53.4662C52.9412 33.7412 52.5156 34.1244 52.5156 34.5971V79.7702C52.5156 80.2429 52.9412 80.6261 53.4662 80.6261H140.533C141.058 80.6261 141.484 80.2429 141.484 79.7702V34.5971C141.484 34.1244 141.058 33.7412 140.533 33.7412Z" fill="#68E1FD"/>
<path d="M140.534 81.0628H53.4667C53.0808 81.0628 52.7107 80.9248 52.4379 80.6791C52.165 80.4334 52.0117 80.1002 52.0117 79.7528V34.5927C52.0117 34.2453 52.165 33.9121 52.4379 33.6664C52.7107 33.4207 53.0808 33.2827 53.4667 33.2827H140.534C140.92 33.2827 141.29 33.4207 141.563 33.6664C141.836 33.9121 141.989 34.2453 141.989 34.5927V79.7702C141.984 80.1146 141.828 80.4434 141.556 80.6853C141.284 80.9272 140.916 81.0628 140.534 81.0628ZM53.4667 34.1779C53.3381 34.1779 53.2147 34.2239 53.1238 34.3058C53.0328 34.3877 52.9817 34.4987 52.9817 34.6145V79.7702C52.9817 79.8861 53.0328 79.9971 53.1238 80.079C53.2147 80.1609 53.3381 80.2069 53.4667 80.2069H140.534C140.663 80.2069 140.786 80.1609 140.877 80.079C140.968 79.9971 141.019 79.8861 141.019 79.7702V34.5927C141.019 34.4769 140.968 34.3658 140.877 34.2839C140.786 34.2021 140.663 34.156 140.534 34.156L53.4667 34.1779Z" fill="#093F68"/>
<path d="M88.0566 88.1934H105.939V95.9355H88.0566V88.1934Z" fill="#093F68"/>
<path d="M105.944 96.3724H88.0573C87.9286 96.3724 87.8053 96.3263 87.7143 96.2445C87.6234 96.1626 87.5723 96.0515 87.5723 95.9357V88.2067C87.5723 88.0909 87.6234 87.9798 87.7143 87.8979C87.8053 87.816 87.9286 87.77 88.0573 87.77H105.944C106.073 87.77 106.196 87.816 106.287 87.8979C106.378 87.9798 106.429 88.0909 106.429 88.2067V95.9357C106.429 96.0515 106.378 96.1626 106.287 96.2445C106.196 96.3263 106.073 96.3724 105.944 96.3724ZM88.5423 95.499H105.459V88.6434H88.5423V95.499Z" fill="#093F68"/>
<path d="M119.301 95.9355H74.705C73.6603 95.9355 72.8135 96.698 72.8135 97.6386V98.0053C72.8135 98.9459 73.6603 99.7083 74.705 99.7083H119.301C120.345 99.7083 121.192 98.9459 121.192 98.0053V97.6386C121.192 96.698 120.345 95.9355 119.301 95.9355Z" fill="#093F68"/>
<path d="M119.31 100.15H74.69C74.0592 100.148 73.4548 99.922 73.0092 99.52C72.5637 99.1181 72.3135 98.5734 72.3135 98.0055V97.6387C72.3148 97.0716 72.5655 96.528 73.011 96.127C73.4564 95.726 74.0601 95.5002 74.69 95.499H119.31C119.94 95.5002 120.544 95.726 120.989 96.127C121.434 96.528 121.685 97.0716 121.686 97.6387V98.0055C121.686 98.5734 121.436 99.1181 120.991 99.52C120.545 99.922 119.941 100.148 119.31 100.15ZM74.69 96.3724C74.5053 96.3724 74.3224 96.4051 74.1517 96.4688C73.9811 96.5324 73.826 96.6257 73.6954 96.7433C73.5648 96.8608 73.4612 97.0004 73.3905 97.1541C73.3199 97.3077 73.2835 97.4724 73.2835 97.6387V98.0055C73.2835 98.3417 73.4315 98.6643 73.6951 98.9025C73.9588 99.1407 74.3165 99.275 74.69 99.2762H119.31C119.683 99.275 120.041 99.1407 120.305 98.9025C120.568 98.6643 120.716 98.3417 120.716 98.0055V97.6387C120.716 97.4724 120.68 97.3077 120.609 97.1541C120.539 97.0004 120.435 96.8608 120.305 96.7433C120.174 96.6257 120.019 96.5324 119.848 96.4688C119.678 96.4051 119.495 96.3724 119.31 96.3724H74.69Z" fill="#093F68"/>
<path d="M136.227 85.8922C137.135 85.8922 137.871 85.2295 137.871 84.4119C137.871 83.5944 137.135 82.9316 136.227 82.9316C135.319 82.9316 134.583 83.5944 134.583 84.4119C134.583 85.2295 135.319 85.8922 136.227 85.8922Z" fill="#F56132"/>
<path d="M136.227 86.3291C135.806 86.3291 135.394 86.2166 135.044 86.006C134.694 85.7953 134.421 85.496 134.26 85.1457C134.099 84.7954 134.056 84.41 134.139 84.0381C134.221 83.6662 134.424 83.3247 134.721 83.0566C135.019 82.7885 135.398 82.6059 135.811 82.532C136.224 82.458 136.653 82.4959 137.042 82.641C137.431 82.7861 137.763 83.0318 137.997 83.3471C138.231 83.6623 138.356 84.0329 138.356 84.4121C138.355 84.9201 138.13 85.4071 137.731 85.7663C137.332 86.1256 136.791 86.3279 136.227 86.3291ZM136.227 83.3685C135.998 83.3685 135.773 83.4297 135.583 83.5443C135.392 83.659 135.244 83.822 135.156 84.0127C135.068 84.2034 135.045 84.4132 135.09 84.6157C135.135 84.8181 135.245 85.0041 135.407 85.15C135.569 85.296 135.776 85.3954 136.001 85.4357C136.226 85.4759 136.459 85.4553 136.67 85.3763C136.882 85.2973 137.063 85.1635 137.191 84.9919C137.318 84.8203 137.386 84.6185 137.386 84.4121C137.386 84.1353 137.264 83.8698 137.046 83.6741C136.829 83.4784 136.534 83.3685 136.227 83.3685Z" fill="#093F68"/>
<path d="M88.2461 48.5791H130.223V74.0018H88.2461V48.5791Z" fill="white"/>
<path d="M130.223 74.4386H88.2702C88.1415 74.4386 88.0182 74.3926 87.9272 74.3108C87.8363 74.2289 87.7852 74.1178 87.7852 74.002V48.5792C87.7852 48.4634 87.8363 48.3524 87.9272 48.2705C88.0182 48.1886 88.1415 48.1426 88.2702 48.1426H130.223C130.351 48.1426 130.475 48.1886 130.566 48.2705C130.657 48.3524 130.708 48.4634 130.708 48.5792V74.002C130.708 74.1178 130.657 74.2289 130.566 74.3108C130.475 74.3926 130.351 74.4386 130.223 74.4386ZM88.7309 73.5653H129.738V49.0159H88.7552L88.7309 73.5653Z" fill="#093F68"/>
<path d="M88.2461 48.5791H130.223V51.5921H88.2461V48.5791Z" fill="#70CC40"/>
<path d="M130.223 52.0289H88.2702C88.1415 52.0289 88.0182 51.9829 87.9272 51.901C87.8363 51.8191 87.7852 51.7081 87.7852 51.5922V48.5792C87.7852 48.4634 87.8363 48.3524 87.9272 48.2705C88.0182 48.1886 88.1415 48.1426 88.2702 48.1426H130.223C130.351 48.1426 130.475 48.1886 130.566 48.2705C130.657 48.3524 130.708 48.4634 130.708 48.5792V51.5922C130.708 51.7081 130.657 51.8191 130.566 51.901C130.475 51.9829 130.351 52.0289 130.223 52.0289ZM88.7309 51.1556H129.738V49.0159H88.7552L88.7309 51.1556Z" fill="#093F68"/>
<path d="M63.7773 40.479H105.754V65.9017H63.7773V40.479Z" fill="white"/>
<path d="M105.755 66.3385H63.778C63.6493 66.3385 63.526 66.2925 63.435 66.2107C63.3441 66.1288 63.293 66.0177 63.293 65.9019V40.4791C63.293 40.3633 63.3441 40.2523 63.435 40.1704C63.526 40.0885 63.6493 40.0425 63.778 40.0425H105.755C105.883 40.0425 106.007 40.0885 106.098 40.1704C106.189 40.2523 106.24 40.3633 106.24 40.4791V65.9019C106.24 66.0177 106.189 66.1288 106.098 66.2107C106.007 66.2925 105.883 66.3385 105.755 66.3385ZM64.263 65.4652H105.27V40.9158H64.263V65.4652Z" fill="#093F68"/>
<path d="M63.7773 40.479H105.754V43.492H63.7773V40.479Z" fill="#FFBC0E"/>
<path d="M105.755 43.9244H63.778C63.6493 43.9244 63.526 43.8784 63.435 43.7966C63.3441 43.7147 63.293 43.6036 63.293 43.4878V40.4791C63.293 40.3633 63.3441 40.2523 63.435 40.1704C63.526 40.0885 63.6493 40.0425 63.778 40.0425H105.755C105.883 40.0425 106.007 40.0885 106.098 40.1704C106.189 40.2523 106.24 40.3633 106.24 40.4791V43.4878C106.24 43.6036 106.189 43.7147 106.098 43.7966C106.007 43.8784 105.883 43.9244 105.755 43.9244ZM64.263 43.0511H105.27V40.9158H64.263V43.0511Z" fill="#093F68"/>
</svg>
