<svg width="119" height="112" viewBox="0 0 119 112" fill="none" xmlns="http://www.w3.org/2000/svg">
<path d="M59.4996 101.607C86.262 101.607 107.957 81.1879 107.957 55.9998C107.957 30.8116 86.262 10.3926 59.4996 10.3926C32.7372 10.3926 11.042 30.8116 11.042 55.9998C11.042 81.1879 32.7372 101.607 59.4996 101.607Z" fill="#F1C48B"/>
<path d="M59.4995 93.7709C81.6634 93.7709 99.6309 76.8604 99.6309 56.0002C99.6309 35.14 81.6634 18.2295 59.4995 18.2295C37.3356 18.2295 19.3682 35.14 19.3682 56.0002C19.3682 76.8604 37.3356 93.7709 59.4995 93.7709Z" fill="#D4E7F8"/>
<path d="M59.5004 18.2295C58.2523 18.2295 57.0181 18.2859 55.7988 18.3909C76.2273 20.1497 92.2291 36.3149 92.2291 56.0002C92.2291 75.6855 76.2273 91.8507 55.7988 93.6094C57.0181 93.7144 58.2523 93.7709 59.5004 93.7709C81.6646 93.7709 99.6317 76.8602 99.6317 56.0002C99.6317 35.1402 81.6646 18.2295 59.5004 18.2295Z" fill="#A3D0F1"/>
<path d="M59.4997 86.9123C77.6392 86.9123 92.3442 73.0723 92.3442 55.9998C92.3442 38.9274 77.6392 25.0874 59.4997 25.0874C41.3602 25.0874 26.6553 38.9274 26.6553 55.9998C26.6553 73.0723 41.3602 86.9123 59.4997 86.9123Z" fill="white"/>
<path d="M56.83 64.355C56.83 65.2944 56.0569 66.0224 55.0585 66.0224H43.6563C43.6563 66.0224 43.6563 66.0224 43.6242 66.0224H43.5922C43.1092 66.0224 42.5937 65.8404 42.2715 65.4768C41.5952 64.7794 41.6598 63.7491 42.3682 63.1126L51.9022 54.9882C52.836 54.2002 53.2549 53.1695 53.2549 52.0779C53.2549 51.108 52.9007 50.1984 52.1918 49.4407C51.3541 48.5617 50.2269 48.1675 49.0996 48.1675C48.1011 48.1675 47.1027 48.5009 46.2975 49.1681L45.2991 50.0169C44.5581 50.6534 43.4629 50.5926 42.7866 49.8957C42.1423 49.1983 42.1748 48.1675 42.9153 47.531L43.9138 46.6822C45.3632 45.4091 47.2635 44.8027 49.0996 44.8027C51.1933 44.8027 53.319 45.6213 54.833 47.1976C56.1857 48.5617 56.83 50.3502 56.83 52.0784C56.83 54.0489 55.9603 56.0495 54.2854 57.4745L48.1978 62.6584H55.0585C56.0569 62.6571 56.83 63.4153 56.83 64.355Z" fill="#4C4372"/>
<path d="M77.5401 60.3839C77.5401 61.3232 76.735 62.0512 75.7365 62.0512H75.4144V64.3555C75.4144 65.2948 74.6414 66.0228 73.6429 66.0228C72.6444 66.0228 71.8714 65.2952 71.8714 64.3555V62.0512H61.7898H61.7577H61.7257C61.3389 62.0512 60.9526 61.9602 60.6305 61.6876C59.8254 61.1119 59.7287 60.0807 60.3409 59.3531L72.2581 45.4087C72.2902 45.4087 72.2902 45.3785 72.3227 45.3479C72.3548 45.3177 72.3873 45.287 72.4194 45.2267C72.5161 45.1965 72.5482 45.1659 72.5802 45.1361C72.6123 45.1059 72.6769 45.0753 72.709 45.0451C72.7736 45.0149 72.8057 44.9843 72.9019 44.9843C72.934 44.9235 72.9665 44.8933 73.0307 44.8933C73.0627 44.8631 73.1274 44.8631 73.2236 44.8329C73.2557 44.8329 73.3203 44.8329 73.3523 44.8027H73.5778H73.6424C73.6424 44.8027 73.6745 44.8027 73.707 44.8027H73.8999C73.9645 44.8329 73.9966 44.8329 74.0612 44.8329C74.0933 44.8631 74.19 44.8631 74.2541 44.8933C74.2862 44.8933 74.3508 44.9235 74.3829 44.9235C74.4475 44.9843 74.5117 45.0145 74.5437 45.0447C74.6083 45.0749 74.6404 45.1055 74.705 45.1357C74.705 45.1357 74.7371 45.1357 74.7371 45.1659C74.7692 45.1659 74.8338 45.196 74.8338 45.2267C74.8979 45.2875 74.9305 45.3177 74.9626 45.3479C74.9946 45.378 75.0272 45.4389 75.0593 45.469C75.0913 45.4992 75.1239 45.5294 75.188 45.6204C75.188 45.6506 75.2201 45.7114 75.2522 45.7416C75.2842 45.8024 75.2842 45.8326 75.3168 45.9236C75.3168 45.9538 75.3488 46.0146 75.3488 46.0448C75.3809 46.1056 75.3809 46.1358 75.3809 46.2268C75.3809 46.2876 75.413 46.3178 75.413 46.3786V46.4696V58.7165H75.7351C76.7345 58.7161 77.5401 59.4743 77.5401 60.3839ZM71.8709 51.2287L65.4612 58.7161H71.8709V51.2287Z" fill="#4C4372"/>
<path d="M59.5 95.0834C36.6022 95.0834 17.9736 77.551 17.9736 56.0002C17.9736 34.4494 36.6022 16.917 59.5 16.917C82.3977 16.917 101.026 34.4494 101.026 56.0002C101.026 77.551 82.3977 95.0834 59.5 95.0834ZM59.5 19.542C38.1404 19.542 20.7627 35.8971 20.7627 56.0002C20.7627 76.1033 38.1404 92.4584 59.5 92.4584C80.8596 92.4584 98.2368 76.1033 98.2368 56.0002C98.2368 35.8971 80.8596 19.542 59.5 19.542Z" fill="#4C4372"/>
<path d="M59.4997 88.2253C40.6201 88.2253 25.2607 73.769 25.2607 56.0003C25.2607 38.2313 40.6201 23.7754 59.4997 23.7754C78.3794 23.7754 93.7387 38.2313 93.7387 56.0003C93.7387 73.769 78.3794 88.2253 59.4997 88.2253ZM59.4997 26.4004C42.1583 26.4004 28.0498 39.679 28.0498 56.0003C28.0498 72.3221 42.1583 85.6003 59.4997 85.6003C76.8412 85.6003 90.9497 72.3217 90.9497 56.0003C90.9497 39.679 76.8412 26.4004 59.4997 26.4004Z" fill="#4C4372"/>
<path d="M59.5 31.0625C58.7298 31.0625 58.1055 30.4749 58.1055 29.75V25.375C58.1055 24.6501 58.7298 24.0625 59.5 24.0625C60.2702 24.0625 60.8945 24.6501 60.8945 25.375V29.75C60.8945 30.4749 60.2702 31.0625 59.5 31.0625Z" fill="#4C4372"/>
<path d="M59.5 87.9375C58.7298 87.9375 58.1055 87.3499 58.1055 86.625V82.25C58.1055 81.5251 58.7298 80.9375 59.5 80.9375C60.2702 80.9375 60.8945 81.5251 60.8945 82.25V86.625C60.8945 87.3499 60.2702 87.9375 59.5 87.9375Z" fill="#4C4372"/>
<path d="M92.0391 57.3125H87.3906C86.6204 57.3125 85.9961 56.7249 85.9961 56C85.9961 55.2751 86.6204 54.6875 87.3906 54.6875H92.0391C92.8093 54.6875 93.4336 55.2751 93.4336 56C93.4336 56.7249 92.8093 57.3125 92.0391 57.3125Z" fill="#4C4372"/>
<path d="M31.6094 57.3125H26.9609C26.1907 57.3125 25.5664 56.7249 25.5664 56C25.5664 55.2751 26.1907 54.6875 26.9609 54.6875H31.6094C32.3796 54.6875 33.0039 55.2751 33.0039 56C33.0039 56.7249 32.3796 57.3125 31.6094 57.3125Z" fill="#4C4372"/>
</svg>
