<svg width="91" height="79" viewBox="0 0 91 79" fill="none" xmlns="http://www.w3.org/2000/svg">
<path d="M90.2629 18.8502C89.7838 18.1894 89.1011 17.6671 88.2973 17.3467L47.3473 1.0481C46.7658 0.816467 46.1364 0.696777 45.5 0.696777C44.8636 0.696777 44.2342 0.816467 43.6527 1.0481L2.7027 17.3467C1.89817 17.6667 1.21461 18.1889 0.734891 18.85C0.255169 19.511 -0.000111697 20.2825 3.66628e-08 21.0709V78.1158H9.1V23.7194L45.5 9.22997L81.9 23.7194V78.1158H91V21.0709C90.9994 20.2824 90.7434 19.511 90.2629 18.8502ZM54.6 29.2201H72.8V45.5187H54.6V29.2201ZM45.5 37.3694H18.2V78.1158H45.5V37.3694ZM72.8 53.668H54.6V78.1158H72.8V53.668Z" fill="url(#paint0_linear_5734_19948)"/>
<defs>
<linearGradient id="paint0_linear_5734_19948" x1="84.2918" y1="0.696787" x2="58.4953" y2="100.898" gradientUnits="userSpaceOnUse">
<stop offset="0.562831" stop-color="#431DDB" stop-opacity="0.9"/>
<stop offset="1" stop-color="#4DC894"/>
</linearGradient>
</defs>
</svg>
